<mxfile host="app.diagrams.net" modified="2023-08-30T09:03:51.664Z" agent="Mozilla/5.0 (Windows NT 10.0; Win64; x64) AppleWebKit/537.36 (KHTML, like Gecko) Chrome/113.0.0.0 Safari/537.36 Edg/113.0.1774.42" version="21.6.9" etag="Ou_rt6SVN55mgycCgK7w" type="github">
  <diagram name="第 1 页" id="O6QF0totMgQ5F5pcrSAT">
    <mxGraphModel>
      <root>
        <mxCell id="0" />
        <mxCell id="1" parent="0" />
      </root>
    </mxGraphModel>
  </diagram>
</mxfile>
